<svg xmlns="http://www.w3.org/2000/svg" xmlns:xlink="http://www.w3.org/1999/xlink" viewBox="0 0 1457 354.02" width="1457" height="354.02"><defs><style>.cls-1{fill:#233170;}.cls-2{fill:url(#linear-gradient);}</style><linearGradient id="linear-gradient" x1="33.75" y1="327.02" x2="248.42" y2="150.35" gradientUnits="userSpaceOnUse"><stop offset="0" stop-color="#25316a"/><stop offset="0.39" stop-color="#854855"/><stop offset="0.76" stop-color="#eb7631"/><stop offset="1" stop-color="#adaaa9"/></linearGradient></defs><title>Asset 1</title><g id="Layer_2" data-name="Layer 2"><g id="Layer_1-2" data-name="Layer 1"><g id="ZgCETW.tif"><path class="cls-1" d="M1457,175c-1.57,2.41-1.45,5.32-2.3,7.94-5,15.49-15.57,25.94-30.27,31.83-25.18,10.09-50.49,9.64-75-2.3C1330,203,1319.66,186.73,1319,165.11c-.6-19.48-.7-39,0-58.47.88-24.53,13.51-41.93,36-51.2,25-10.3,50.15-9.4,74.35,2.84,14.4,7.28,23.79,19,26.68,35.29.12.69.22,1.28,1,1.46v20h-38.93a6.79,6.79,0,0,1-.87-5c1.22-14.7-8.61-24.44-23.24-26.62-15.49-2.3-30.51,5.87-32,19.9a295,295,0,0,0,0,63.24c1.63,15.08,18.11,23.46,34.72,20,13.71-2.89,20.49-11.24,20.56-25.21,0-1.61-.44-3.3.65-5.27H1457Z"/><path class="cls-2" d="M264.41,149.07V52.15L174.15,0,83.89,51.9v96.88l-5.17,3.06-39.08,23C26.3,182,13.65,190.43,0,197V302q42.14,24.33,84.26,48.69c1.65,1,3.74,1.39,4.74,3.31h2c7.94-4.73,16-9.31,23.8-14.23,12.81-8.05,26.35-14.83,39.13-23,5.78-3.68,12-6.89,18.07-10.19a4.15,4.15,0,0,1,3.78-.39h0c9.6,6.48,19.85,11.85,29.84,17.66,15.9,9.24,31.85,18.37,47.77,27.58,1.27.73,2.41,1.68,3.61,2.53h2l89.38-52.07V197.67ZM97,59l77.08-44.79L252,59.17v82.59l-77.81-44.9L97,141.09Zm-.24,114.21a78.19,78.19,0,0,0,0-9.08L167.68,205V286.6l-14.87-7.84L96.46,246.09q0-10,0-19.9h0Q96.64,199.72,96.81,173.25ZM90.16,339.47l-77.5-44.76V204.79l36.9-21.55h0c9.48-4.43,18.14-10.35,27.32-15.32,2.14-1.16,4.26-2.37,7.24-4v89.45l77.71,44.93Zm84.07-145.82-70.91-41c7.43-4.38,14.42-8.52,21.43-12.62,15.3-9,30.66-17.82,45.89-26.88,2.11-1.26,3.78-1.6,5.88-.39,22.71,13.12,45.42,26.21,69,39.84Zm6.92,11.06,70.47-41V246L181.15,286.6ZM335.92,294.5l-77.78,44.74-71-41,77.56-45.07V163.81l71.25,41.09Z"/><path class="cls-1" d="M1033.15,218.7H994.53V51.9h40.65l63.54,94.43V51.73h38.77V218.47h-39l-65.33-97.94Z"/><path class="cls-1" d="M542.12,218.69h-46l-32.84-58.61h-19V218.6h-41.7V51.92a9.93,9.93,0,0,1,2-.39c27,.23,54-.9,80.92.55,24.49,1.32,43.57,16.79,48.36,39C539.15,116,530,141.78,505.39,153a11.45,11.45,0,0,0-1.43,1ZM444.45,84.56v44c8.73,0,17.2,0,25.66,0a39.39,39.39,0,0,0,6.46-.55c10.87-1.9,17.59-10.16,17.6-21.52,0-11.74-6.24-19.63-17.56-21.24C466,83.7,455.38,84.64,444.45,84.56Z"/><path class="cls-1" d="M828.42,151.08v32.84H909.6v34.47c-4.43.61-118,.67-123.11,0V51.88H909.25V85.69H828.5V117h67.74v34.07Z"/><path class="cls-1" d="M1299.84,114.62h-38.9c-1.28-1.27-.84-2.87-.74-4.28,1.36-20-16.13-28.77-31.57-27-16.52,1.93-24.75,11.45-24.78,28.09,0,15.83.09,31.66,0,47.49-.1,11.8,4.31,21,15.54,25.46,11.88,4.74,23.59,4.14,33.74-4.55,5.54-4.74,7.31-11.32,7.08-18.48-.06-1.82,0-3.63,0-6.21h38.91c3.34,23-3.48,42.15-21.75,54.28-25.28,16.78-68.12,16.11-92.82-1.51-15.93-11.37-22.78-27.33-22.93-46.42-.13-17.82.12-35.64.24-53.46.19-28.63,19.28-49.63,46.9-56.38,22.79-5.57,45-4,65.72,7.86,17,9.77,25.3,24.91,25.4,44.52C1299.85,107.39,1299.84,110.71,1299.84,114.62Z"/><path class="cls-1" d="M631.43,52.17c1.62-1.07,3.34-.66,5-.66,23.5,0,47-.1,70.49,0,13.73.07,26.82,2.79,38.16,11.1,17.2,12.6,24.38,35.26,18.59,58.23-5.4,21.43-22,36.29-43.62,39.19a114.6,114.6,0,0,1-15.94,1c-10.13-.06-20.26,0-30.92,0v57.51H631.43Zm42.09,32.35v44c9.13,0,17.92,0,26.7,0a39.47,39.47,0,0,0,5.45-.43c11.06-1.61,17.85-9.06,18.41-20.11.61-12.05-4.78-20.19-15.93-22.41C696.72,83.28,685.08,84.79,673.52,84.52Z"/><path class="cls-1" d="M561.25,51.69h41.47v167H561.25Z"/><path class="cls-1" d="M658.62,270.74l-9.08,30.62c-1.63,1-3.06.59-4.75.35l-10.37-39c1.52-.81,3-.62,4.73-.18l8.17,31.58,9.24-31.49a8,8,0,0,1,5-.1l9.76,31.69,8-31.41c1.51-1,2.93-.5,4.91-.47l-10.42,39.09c-1.46.86-2.78.55-4.68.41l-9.47-31Z"/><path class="cls-1" d="M1327.54,271v30.08c-1.22,1.38-2.59.69-4.12.86V262.52a10.34,10.34,0,0,1,5.12-.13l21.3,32.57V263.05c1.59-1.29,2.85-.86,4.28-.53V301.4c-1.62,1-3.26.54-5.19.37l-20.29-31Z"/><path class="cls-1" d="M534.87,262.62c1.53-.74,3-.42,4.9-.34l20.48,31.18,1-.33V262.84c1.7-.85,2.91-.93,4.22-.1v38.75a8.88,8.88,0,0,1-5.22.24l-21.15-32.36v31.78a3.63,3.63,0,0,1-4.21.28Z"/><path class="cls-1" d="M422.15,284.5l10,16.77c-1.6,1.29-3.21.71-5,.56L417.8,286c-2.56-1.21-5.15-.52-8-.49-1.09,5.5-.14,10.81-.64,15.92-1.42,1-2.69.69-4.21.27V262.44c6.17-.43,12.43-1,18.46,1,7.2,2.41,8.86,13.13,3,18.15A49.63,49.63,0,0,1,422.15,284.5Zm-12.68-3.22c5.46-.36,11,2,14.57-3.49,1.91-2.91,1.86-6.44-.51-8.82-4-4-9-2.66-14.06-2.31Z"/><path class="cls-1" d="M941,262.24c5.22,0,10.19-.41,15.16.35s8.41,3,9.53,8.12-.72,9.2-5.36,12.31c-.67.45-1.32.95-2.12,1.52l10,16.79c-1.72,1.16-3.31.74-5.08.46l-9.31-15.86a13.27,13.27,0,0,0-8-.1c-1,5.11-.12,10.26-.58,15.41-1.17,1.44-2.63.64-4.23.64Zm4.52,19.08c5.49-.41,11,2,14.59-3.55,1.89-2.92,1.83-6.45-.55-8.81-4-3.94-9-2.65-14-2.27Z"/><path class="cls-1" d="M688.71,281.67c.74-12.72,6.28-19.21,16.3-19.92,11.79-.83,18.83,5.24,20.06,17.11a34.37,34.37,0,0,1-.3,8.94c-1.43,9.1-8.46,14.88-17.81,14.85s-16-5.45-17.66-14.4A61.18,61.18,0,0,1,688.71,281.67Zm31.64-1.2c-.1-4.68-.81-11-8-13.83-7.56-3-15.16.44-17.69,7.91-3.47,10.22.28,21.29,8,23.43a12.41,12.41,0,0,0,2,.32C715,299.44,720.31,294,720.36,280.46Z"/><path class="cls-1" d="M887.88,282.27c0,14.89-9.56,22.81-23.63,19.61a16.5,16.5,0,0,1-3.73-1.34c-8.69-4.38-12.09-19.94-6.64-30.24,4.32-8.16,16.08-11.42,24.88-6.65C886.11,267.63,887.91,274.56,887.88,282.27Zm-4.73-1.42c-.25-4.87-1-11-7.38-13.9-4.78-2.2-10-2.17-14.16,1.28-6.39,5.25-5.86,12.58-4.72,19.77a11.75,11.75,0,0,0,8.57,10,9.94,9.94,0,0,0,2,.29C877.72,299.33,883.11,293.78,883.15,280.86Z"/><path class="cls-1" d="M895,282.22c-.06-13.81,7.05-21.17,19.81-20.48,8.69.47,14.5,5.61,16.08,14.25.24,1.31.48,2.62.62,3.94,1.36,12.72-5.7,21.93-17.4,22.71S895.09,295.41,895,282.22Zm4.82-.14c0,8.31,2.82,13.62,8.27,15.61,7.83,2.86,15.37-.63,17.67-8.17,3.24-10.64-.5-21.23-8.26-23.35a12.68,12.68,0,0,0-1.47-.26C905.87,264.39,899.85,270.4,899.85,282.08Z"/><path class="cls-1" d="M1154.15,283.23c0-14.55,6.91-21.83,19.16-21.5,8.88.24,14.58,4.91,16.67,13.57a28,28,0,0,1,.35,11.87c-1.87,10-8.13,15.45-17.77,15.49s-16-5.22-17.89-15.25C1154.32,285.62,1154.21,283.79,1154.15,283.23Zm4.81-.47a33.71,33.71,0,0,0,.38,3.8c1.51,8.25,5.64,11.86,13.41,11.81,7.45,0,11.35-3.6,12.88-11.79a24.4,24.4,0,0,0-.23-9.9c-1.78-8-6.51-11.56-14.65-10.83C1163.28,266.52,1159.07,272.14,1159,282.76Z"/><path class="cls-1" d="M1058.7,292.52V262.8c1.38-.89,2.53-.6,3.91-.44V301.6a9.55,9.55,0,0,1-5.16.11l-21.28-32.59v31.74c-1.41,1.5-2.52,1.09-3.88.8V262.31h4.63c7.33,10.1,13.16,21.15,20.87,30.91l1.1,1.52Z"/><path class="cls-1" d="M1226.7,292.52V262.8c1.38-.9,2.53-.6,3.91-.45V301.6a9.51,9.51,0,0,1-5.13.11l-21.3-32.63v31.78c-1.41,1.48-2.52,1.08-3.88.77V262.31h4.61c7.39,10.08,13.17,21.15,20.89,30.92l1.1,1.52Z"/><path class="cls-1" d="M975.57,301.84V262.47c5.47,0,10.81-.58,16,.12,10.68,1.46,15.82,8.75,15.39,20.71-.38,10.71-6.68,17.72-17,18.49C985.32,302.13,980.66,301.84,975.57,301.84Zm4.43-3.75c8,.09,15.92.76,20.13-7.29,3.34-6.39,3.43-13.39-1-19.36-4.81-6.49-12-5.52-19.13-5.3Z"/><path class="cls-1" d="M1396.56,262.21c5.69.11,10.82-.45,15.95.49,4.92.91,8.3,3.44,9,8.58s-.66,9.22-5.44,11.77c-.58.31-1.12.7-2.13,1.33L1424,301.46a7.69,7.69,0,0,1-5.15.22l-9.27-15.73c-2.61-1.18-5.23-.41-8.38-.61v15.73a4,4,0,0,1-4.69.32Zm4.66,19.14c5.29-.56,11,2,14.71-3.59a6.85,6.85,0,0,0-.28-8.42c-3.93-4.62-9.26-2.82-14.43-2.79Z"/><path class="cls-1" d="M751.81,284.38l10.16,17c-1.82,1-3.38.68-5.2.23l-9.24-15.72c-2.72-.92-5.32-.72-8.45-.09v15.55a4.84,4.84,0,0,1-4.49.16V262.42c5.36-.34,10.6-.6,15.85.29,5,.84,8.29,3.44,9,8.6s-.75,9.22-5.53,11.77C753.34,283.39,752.8,283.77,751.81,284.38Zm-12.59-2.89c5.34-.77,11,1.79,14.57-3.63,1.9-2.86,1.89-6.33-.44-8.8-3.9-4.14-9.06-2.55-14.13-2.59Z"/><path class="cls-1" d="M510.85,262.43l-.27,4H493.89c-1,4.29-.54,8.22-.4,12.58h15.64c1,1.51.61,2.6.55,4h-16a66.68,66.68,0,0,0-.08,14.77h16.61a3.89,3.89,0,0,1,.13,4.1H489.06v-39.5Z"/><path class="cls-1" d="M1084.22,262.3h4l15.29,39c-1.33,1.15-2.74.64-4.45.45l-5-12.24H1078.6c-2.59,3.43-3.12,7.88-5.41,12-1,.78-2.37.64-4.37-.06Zm2.05,5.65-6.35,17h12.56Z"/><path class="cls-1" d="M791.75,262.22h5.33l-15.83,17.29,16,21.86c-1.81.94-3.25.61-5,.41l-14.47-19-4.14,3.77v14.53c-1.44,1.34-2.75.72-4.24.8V262.74c1.19-1,2.54-.66,4.31,0v19.08Z"/><path class="cls-1" d="M1435.71,279.15h15.53c1,1.28.66,2.25.5,3.66h-15.47c-1.19,5.1-.33,9.84-.63,15h16.77a3.27,3.27,0,0,1,.34,3.91h-21.37V262.48h21.39c1,1,.43,2.23.09,3.81h-16.63C1435.18,270.55,1435.8,274.51,1435.71,279.15Z"/><path class="cls-1" d="M459.78,301c-1.7,1.36-3,.78-4.51.86v-39.7c5.46.16,11-.63,16.55.85,4.83,1.29,7.88,4.08,8.15,9.35.33,6.46-1.83,10.38-6.92,12.47-4.1,1.69-8.51,1.15-13.27,1.78Zm.16-34.92v16.09c5.32,0,10.72,1.36,14.29-3.72a7.26,7.26,0,0,0,.09-8.46C470.82,265,465.39,266.11,459.94,266.12Z"/><path class="cls-1" d="M1314.08,301.78h-21.69V262.5h21.18c.61,1.06.48,2.15,0,3.7h-16.22c-1.25,4.3-.32,8.28-.73,12.76h15.65a3.38,3.38,0,0,1,0,4.12h-15.29v14.7h15.52C1314.52,299.06,1313.65,300.32,1314.08,301.78Z"/><path class="cls-1" d="M598.7,297.87v3.84H577.42V262.44h21c1.06,1,.23,2.31.37,3.93H582c-1.33,4.23-.59,8.18-.61,12.59H597c1.16,1.49.94,2.54.36,4H581.87c-1,5.08-.51,9.78-.45,14.89Z"/><path class="cls-1" d="M846.09,263.83l-1.84,3.75c-7.58-2.25-15.18-3.82-20.35,3.91-4.43,6.63-4.41,14.08-.44,20.83,4.89,8.33,13,6.2,20.71,5,.84,2,.87,3.78-1.56,4.32-9.76,2.18-21,1.38-25.1-10.08-4.56-12.59.4-25.6,11-28.83C834.22,261,839.92,261.51,846.09,263.83Z"/><path class="cls-1" d="M1282.43,297.27a3.78,3.78,0,0,1,.15,3.62c-9.94,3.5-19.52,1.55-24.15-4.9-5.31-7.4-4.93-21.27.77-28.21,5.13-6.25,15.39-7.87,24.83-3.91.53,1.51-.65,2.42-1.29,3.7-7.42-2.31-14.78-3.68-20.23,3.83-3.89,5.35-3.91,16.09-.3,21.39C1266,298.32,1271.81,299.65,1282.43,297.27Z"/><path class="cls-1" d="M620.33,301.6c-1.95.53-3.07.62-4.7-.18V266.61H604.26c-1.71-1.44-1.33-2.72-1-4.22h29.16c.6,1.21.47,2.32,0,3.94h-12.1Z"/><path class="cls-1" d="M1377.8,301.05c-1.68,1.24-2.94,1-4.63.56V266.49h-11.56c-1.66-1.39-1.18-2.56-1.06-4h29.26c.71,1.12.73,2.3-.39,3.86H1377.8Z"/><path class="cls-1" d="M1133.84,262.31a4.57,4.57,0,0,1-.13,4h-11.9v34.78c-1.71,1.18-3,1-4.67.47V266.45h-11.42a3.23,3.23,0,0,1-.45-4.13Z"/><path class="cls-1" d="M1140.92,262.58a5.22,5.22,0,0,1,3.83-.11v39.1c-1.15.81-2.38.58-3.83,0Z"/><path class="cls-1" d="M439.6,262.32h4v39.19c-1.22.78-2.47.52-4,.06Z"/><path class="cls-1" d="M1016.42,262.64c1.26-.87,2.52-.35,4-.26v38.89c-1.12,1.16-2.46.61-4,.53Z"/></g></g></g></svg>
